{
    "asset" : {
        "generator" : "Khronos glTF Blender I/O v1.2.75",
        "version" : "2.0"
    },
    "scene" : 0,
    "scenes" : [
        {
            "name" : "Scene",
            "nodes" : [
                0
            ]
        }
    ],
    "nodes" : [
        {
            "mesh" : 0,
            "name" : "N01",
            "scale" : [
                0.009999999776482582,
                0.009999999776482582,
                0.009999999776482582
            ]
        }
    ],
    "animations" : [
        {
            "channels" : [
                {
                    "sampler" : 0,
                    "target" : {
                        "node" : 0,
                        "path" : "translation"
                    }
                },
                {
                    "sampler" : 1,
                    "target" : {
                        "node" : 0,
                        "path" : "rotation"
                    }
                },
                {
                    "sampler" : 2,
                    "target" : {
                        "node" : 0,
                        "path" : "scale"
                    }
                }
            ],
            "name" : "N01|Take 001|BaseLayer",
            "samplers" : [
                {
                    "input" : 4,
                    "interpolation" : "STEP",
                    "output" : 5
                },
                {
                    "input" : 4,
                    "interpolation" : "STEP",
                    "output" : 6
                },
                {
                    "input" : 4,
                    "interpolation" : "STEP",
                    "output" : 7
                }
            ]
        }
    ],
    "materials" : [
        {
            "doubleSided" : true,
            "emissiveFactor" : [
                0,
                0,
                0
            ],
            "name" : "N01",
            "normalTexture" : {
                "index" : 0,
                "texCoord" : 0
            },
            "pbrMetallicRoughness" : {
                "baseColorTexture" : {
                    "index" : 1,
                    "texCoord" : 0
                },
                "metallicRoughnessTexture" : {
                    "index" : 2,
                    "texCoord" : 0
                }
            }
        }
    ],
    "meshes" : [
        {
            "name" : "Mesh",
            "primitives" : [
                {
                    "attributes" : {
                        "POSITION" : 0,
                        "NORMAL" : 1,
                        "TEXCOORD_0" : 2
                    },
                    "indices" : 3,
                    "material" : 0
                }
            ]
        }
    ],
    "textures" : [
        {
            "source" : 0
        },
        {
            "source" : 1
        },
        {
            "source" : 2
        }
    ],
    "images" : [
        {
            "mimeType" : "image/png",
            "name" : "N01_Normal",
            "uri" : "N01_Normal.png"
        },
        {
            "mimeType" : "image/png",
            "name" : "N01_BaseColor_Beech",
            "uri" : "N01_BaseColor_Beech.png"
        },
        {
            "mimeType" : "image/png",
            "name" : "N01_Metallic-N01_Roughness",
            "uri" : "N01_Metallic-N01_Roughness.png"
        }
    ],
    "accessors" : [
        {
            "bufferView" : 0,
            "componentType" : 5126,
            "count" : 4672,
            "max" : [
                30.96994972229004,
                76.93891143798828,
                26.447479248046875
            ],
            "min" : [
                -30.96994972229004,
                -1.9999999949504854e-06,
                -26.388639450073242
            ],
            "type" : "VEC3"
        },
        {
            "bufferView" : 1,
            "componentType" : 5126,
            "count" : 4672,
            "type" : "VEC3"
        },
        {
            "bufferView" : 2,
            "componentType" : 5126,
            "count" : 4672,
            "type" : "VEC2"
        },
        {
            "bufferView" : 3,
            "componentType" : 5123,
            "count" : 16440,
            "type" : "SCALAR"
        },
        {
            "bufferView" : 4,
            "componentType" : 5126,
            "count" : 1,
            "max" : [
                0.07500000298023224
            ],
            "min" : [
                0.07500000298023224
            ],
            "type" : "SCALAR"
        },
        {
            "bufferView" : 5,
            "componentType" : 5126,
            "count" : 1,
            "type" : "VEC3"
        },
        {
            "bufferView" : 6,
            "componentType" : 5126,
            "count" : 1,
            "type" : "VEC4"
        },
        {
            "bufferView" : 7,
            "componentType" : 5126,
            "count" : 1,
            "type" : "VEC3"
        }
    ],
    "bufferViews" : [
        {
            "buffer" : 0,
            "byteLength" : 56064,
            "byteOffset" : 0
        },
        {
            "buffer" : 0,
            "byteLength" : 56064,
            "byteOffset" : 56064
        },
        {
            "buffer" : 0,
            "byteLength" : 37376,
            "byteOffset" : 112128
        },
        {
            "buffer" : 0,
            "byteLength" : 32880,
            "byteOffset" : 149504
        },
        {
            "buffer" : 0,
            "byteLength" : 4,
            "byteOffset" : 182384
        },
        {
            "buffer" : 0,
            "byteLength" : 12,
            "byteOffset" : 182388
        },
        {
            "buffer" : 0,
            "byteLength" : 16,
            "byteOffset" : 182400
        },
        {
            "buffer" : 0,
            "byteLength" : 12,
            "byteOffset" : 182416
        }
    ],
    "buffers" : [
        {
            "byteLength" : 182428,
            "uri" : "N01_Beech.bin"
        }
    ]
}
